<svg version="1.1" id="Layer_1" xmlns="http://www.w3.org/2000/svg" xmlns:xlink="http://www.w3.org/1999/xlink" x="0px" y="0px"
	 width="100%" viewBox="0 0 670 73" enable-background="new 0 0 670 73" xml:space="preserve">
<path fill="#000000" opacity="1.000000" stroke="none" 
	d="
M1.000000,26.000000 
	C1.000000,17.671740 1.000000,9.343479 1.000000,1.038310 
	C224.333344,1.038310 447.666687,1.038310 671.000000,1.038310 
	C671.000000,8.738619 671.000000,16.400618 670.618896,24.585066 
	C627.947021,37.009407 584.721741,43.854317 541.172119,48.931717 
	C481.702057,55.865280 421.992462,59.008957 362.156525,59.724850 
	C291.637939,60.568546 221.227066,58.364101 151.021408,51.182838 
	C109.574135,46.943241 68.318306,41.533375 27.697815,31.992762 
	C18.819157,29.907415 9.900329,27.993088 1.000000,26.000000 
z"/>
<path fill="#0A0D8E" opacity="1.000000" stroke="none" 
	d="
M1.000000,26.468657 
	C9.900329,27.993088 18.819157,29.907415 27.697815,31.992762 
	C68.318306,41.533375 109.574135,46.943241 151.021408,51.182838 
	C221.227066,58.364101 291.637939,60.568546 362.156525,59.724850 
	C421.992462,59.008957 481.702057,55.865280 541.172119,48.931717 
	C584.721741,43.854317 627.947021,37.009407 670.618896,25.053757 
	C671.000000,41.324013 671.000000,57.648026 671.000000,73.955276 
	C447.666656,73.955276 224.333328,73.955276 1.000000,73.955276 
	C1.000000,58.252800 1.000000,42.595058 1.000000,26.468657 
z"/>
</svg>